HIERARCHY
ROOT Hips
{
	OFFSET 0.00000 0.00000 0.00000
	CHANNELS 6 Xposition Yposition Zposition Zrotation Yrotation Xrotation 
	JOINT LHipJoint
	{
		OFFSET 0 0 0
		CHANNELS 3 Zrotation Yrotation Xrotation
		JOINT LeftHip
		{
			OFFSET 1.77779 -1.88989 0.48267
			CHANNELS 3 Zrotation Yrotation Xrotation
			JOINT LeftKnee
			{
				OFFSET 2.53442 -6.96327 0.00000
				CHANNELS 3 Zrotation Yrotation Xrotation
				JOINT LeftAnkle
				{
					OFFSET 2.71068 -7.44755 0.00000
					CHANNELS 3 Zrotation Yrotation Xrotation
					JOINT LeftToe
					{
						OFFSET 0.17992 -0.49431 2.22524
						CHANNELS 3 Zrotation Yrotation Xrotation
						End Site
						{
							OFFSET 0.00000 -0.00000 1.14687
						}
					}
				}
			}
		}
	}
	JOINT RHipJoint
	{
		OFFSET 0 0 0
		CHANNELS 3 Zrotation Yrotation Xrotation
		JOINT RightHip
		{
			OFFSET -1.58469 -1.88989 0.48267
			CHANNELS 3 Zrotation Yrotation Xrotation
			JOINT RightKnee
			{
				OFFSET -2.60386 -7.15404 0.00000
				CHANNELS 3 Zrotation Yrotation Xrotation
				JOINT RightAnkle
				{
					OFFSET -2.73334 -7.50979 0.00000
					CHANNELS 3 Zrotation Yrotation Xrotation
					JOINT RightToe
					{
						OFFSET -0.25618 -0.70384 2.21822
						CHANNELS 3 Zrotation Yrotation Xrotation
						End Site
						{
							OFFSET -0.00000 -0.00000 1.16381
						}
					}
				}
			}
		}
	}
	JOINT lowerback
	{
		OFFSET 0 0 0
		CHANNELS 3 Zrotation Yrotation Xrotation
		JOINT Chest
		{
			OFFSET 0.03410 2.01612 -0.22230
			CHANNELS 3 Zrotation Yrotation Xrotation
			JOINT Chest2
			{
				OFFSET 0.03465 2.03012 0.00937
				CHANNELS 3 Zrotation Yrotation Xrotation
				JOINT lowerneck
				{
					OFFSET 0 0 0
					CHANNELS 3 Zrotation Yrotation Xrotation
					JOINT Neck
					{
						OFFSET -0.00219 1.70459 0.20857
						CHANNELS 3 Zrotation Yrotation Xrotation
						JOINT Head
						{
							OFFSET 0.02518 1.72339 -0.22179
							CHANNELS 3 Zrotation Yrotation Xrotation
							End Site
							{
								OFFSET 0.00282 1.74122 -0.09823
							}
						}
					}
				}
				JOINT LeftCollar
				{
					OFFSET 0 0 0
					CHANNELS 3 Zrotation Yrotation Xrotation
					JOINT LeftShoulder
					{
						OFFSET 3.36358 1.00547 -0.37661
CHANNELS 3 Zrotation Xrotation Yrotation
						JOINT LeftElbow
						{
OFFSET 0 -5.065070 0.000000
CHANNELS 3 Zrotation Xrotation Yrotation
							JOINT LeftWrist
							{
OFFSET 0 -3.601960 0.000000
CHANNELS 3 Zrotation Xrotation Yrotation
								JOINT lhand
								{
									OFFSET 0 0 0
CHANNELS 3 Zrotation Xrotation Yrotation
									JOINT LFingers
									{
OFFSET 0 -0.450350 0.000000
CHANNELS 3 Zrotation Xrotation Yrotation
										End Site
										{
OFFSET 0 -0.363080 0.000000
										}
									}
								}
								JOINT LThumb
								{
OFFSET 0 0.000000 0.000000
CHANNELS 3 Zrotation Xrotation Yrotation
									End Site
									{
OFFSET 0 -0.368620 0.368620
									}
								}
							}
						}
					}
				}
				JOINT RightCollar
				{
					OFFSET 0 0 0
					CHANNELS 3 Zrotation Yrotation Xrotation
					JOINT RightShoulder
					{
						OFFSET -3.50159 0.80383 -0.71526
CHANNELS 3 Zrotation Xrotation Yrotation
						JOINT RightElbow
						{
OFFSET 0 -5.363940 0.000000
CHANNELS 3 Zrotation Xrotation Yrotation
							JOINT RightWrist
							{
OFFSET 0 -3.580350 0.000000
CHANNELS 3 Zrotation Xrotation Yrotation
								JOINT rhand
								{
									OFFSET 0 0 0
CHANNELS 3 Zrotation Xrotation Yrotation
									JOINT RFingers
									{
OFFSET 0 -0.663750 0.000000
CHANNELS 3 Zrotation Xrotation Yrotation
										End Site
										{
OFFSET 0 -0.535130 0.000000
										}
									}
								}
								JOINT RThumb
								{
OFFSET 0 0.000000 0.000000
CHANNELS 3 Zrotation Xrotation Yrotation
									End Site
									{
OFFSET 0 -0.543300 0.543300
									}
								}
							}
						}
					}
				}
			}
		}
	}
}
MOTION
Frames: 6
Frame Time: 0.008333333333333333
-0.116548 17.140463 9.028409 -3.029518 -5.707474 3.388336 0.000000 0.000000 0.000000 -16.397781 3.940967 -4.889427 19.107883 19.976786 87.390409 0.541256 -6.201558 17.534633 0.026885 -1.022565 -2.811212 0.000000 0.000000 0.000000 29.648284 13.039993 -31.041089 -7.519191 -15.753573 50.811062 -0.666341 1.010820 -15.103834 -0.190238 -2.808826 7.746974 0.295468 -0.156900 17.088583 3.629819 0.200753 0.099092 3.731922 0.178259 -9.528578 -1.478921 -2.285513 -21.378117 1.466116 -2.930601 13.807611 0.356120 -1.322003 7.796924 0.000000 0.000000 0.000000 3.799302 10.876460 -53.555846 92.126859 -59.982396 61.841838 25.852508 -30.022492 -0.770002 0.000000 0.000000 0.000000 -7.125000 0.000000 0.000000 -0.568753 30.834976 -0.196813 0.000000 0.000000 0.000000 2.072857 19.147594 32.230658 -116.915072 -57.077332 -83.080389 -18.217614 -18.917399 -37.106078 0.000000 0.000000 0.000000 7.125000 0.000000 0.000000 8.335375 -8.191855 9.532174
-0.118445 17.120189 9.158626 -3.306753 -5.692222 3.375007 0.000000 0.000000 0.000000 -15.727143 3.948900 -5.578282 19.431649 19.983757 88.337428 0.496167 -6.510873 17.261698 0.040454 -1.236896 -3.401636 0.000000 0.000000 0.000000 30.108651 13.015579 -30.572468 -7.580974 -15.801520 51.037787 -0.715222 0.619261 -15.769103 -0.187914 -2.791677 7.699321 0.504803 -0.125301 17.228550 3.716657 0.296860 0.105075 3.685765 0.217177 -9.606735 -1.519762 -2.308939 -21.293950 1.500947 -2.956004 13.692833 0.372361 -1.333810 7.746173 0.000000 0.000000 0.000000 3.681105 11.228781 -53.338737 91.837577 -59.986189 61.591314 25.853523 -29.845076 -0.780206 0.000000 0.000000 0.000000 -7.125000 0.000000 0.000000 -0.568058 30.846328 -0.196439 0.000000 0.000000 0.000000 1.885772 18.707981 32.492374 -116.785015 -57.107195 -82.971167 -18.074843 -18.916197 -36.879433 0.000000 0.000000 0.000000 7.125000 0.000000 0.000000 8.377124 -7.938366 9.548922
-0.120341 17.099916 9.288843 -3.583988 -5.676970 3.361678 0.000000 0.000000 0.000000 -15.056506 3.956833 -6.267137 19.755416 19.990729 89.284446 0.451079 -6.820189 16.988763 0.054023 -1.451226 -3.992060 0.000000 0.000000 0.000000 30.569018 12.991165 -30.103847 -7.642757 -15.849466 51.264511 -0.764104 0.227702 -16.434372 -0.185590 -2.774529 7.651668 0.714139 -0.093702 17.368517 3.803495 0.392967 0.111058 3.639608 0.256095 -9.684892 -1.560604 -2.332364 -21.209783 1.535778 -2.981406 13.578055 0.388601 -1.345616 7.695422 0.000000 0.000000 0.000000 3.562908 11.581101 -53.121629 91.548295 -59.989982 61.340789 25.854538 -29.667661 -0.790409 0.000000 0.000000 0.000000 -7.125000 0.000000 0.000000 -0.567364 30.857681 -0.196065 0.000000 0.000000 0.000000 1.698687 18.268368 32.754090 -116.654958 -57.137058 -82.861945 -17.932072 -18.914995 -36.652789 0.000000 0.000000 0.000000 7.125000 0.000000 0.000000 8.418874 -7.684877 9.565670
-0.122238 17.079642 9.419060 -3.861224 -5.661718 3.348349 0.000000 0.000000 0.000000 -14.385868 3.964766 -6.955992 20.079182 19.997701 90.231464 0.405990 -7.129504 16.715828 0.067592 -1.665557 -4.582484 0.000000 0.000000 0.000000 31.029385 12.966751 -29.635226 -7.704540 -15.897413 51.491236 -0.812985 -0.163857 -17.099641 -0.183266 -2.757380 7.604015 0.923474 -0.062102 17.508483 3.890333 0.489074 0.117042 3.593451 0.295014 -9.763049 -1.601445 -2.355790 -21.125616 1.570610 -3.006808 13.463277 0.404841 -1.357422 7.644671 0.000000 0.000000 0.000000 3.444711 11.933422 -52.904520 91.259013 -59.993775 61.090265 25.855553 -29.490245 -0.800613 0.000000 0.000000 0.000000 -7.125000 0.000000 0.000000 -0.566669 30.869033 -0.195691 0.000000 0.000000 0.000000 1.511602 17.828756 33.015807 -116.524901 -57.166921 -82.752723 -17.789301 -18.913793 -36.426145 0.000000 0.000000 0.000000 7.125000 0.000000 0.000000 8.460624 -7.431388 9.582418
-0.123124 17.059247 9.548408 -4.151973 -5.639173 3.405459 0.000000 0.000000 0.000000 -13.702241 3.941409 -7.752777 20.393050 19.991057 91.149758 0.359973 -7.381855 16.361688 0.074920 -1.763392 -4.852248 0.000000 0.000000 0.000000 31.483874 12.975304 -29.181412 -7.746951 -15.929785 51.645906 -0.863483 -0.541579 -17.755617 -0.166903 -2.618100 7.218007 1.165030 -0.044259 17.561528 3.962829 0.572677 0.079554 3.515478 0.325670 -9.837994 -1.606835 -2.376024 -20.911157 1.601179 -3.038796 13.312038 0.414638 -1.372077 7.560043 0.000000 0.000000 0.000000 3.372712 12.361958 -52.685715 91.095275 -59.995367 60.948479 25.892787 -29.223302 -0.946684 0.000000 0.000000 0.000000 -7.125000 0.000000 0.000000 -0.538927 31.031908 -0.184429 0.000000 0.000000 0.000000 1.346980 17.491841 33.292289 -116.495604 -57.173655 -82.728120 -17.694889 -18.860737 -36.279493 0.000000 0.000000 0.000000 7.125000 0.000000 0.000000 8.489607 -7.267164 9.594924
-0.123685 17.038813 9.677476 -4.447078 -5.614278 3.485272 0.000000 0.000000 0.000000 -13.014428 3.907967 -8.584349 20.703728 19.980026 92.058793 0.313655 -7.615845 15.981374 0.080235 -1.823679 -5.018659 0.000000 0.000000 0.000000 31.936469 12.994482 -28.732370 -7.783118 -15.957137 51.777352 -0.914501 -0.914842 -18.408599 -0.146015 -2.439456 6.722942 1.416969 -0.030850 17.586556 4.030702 0.652249 0.028055 3.427251 0.353663 -9.911904 -1.600798 -2.395229 -20.654703 1.630374 -3.072906 13.149046 0.422357 -1.387649 7.464497 0.000000 0.000000 0.000000 3.315603 12.815060 -52.466363 90.972003 -59.996248 60.841742 25.941695 -28.927502 -1.136547 0.000000 0.000000 0.000000 -7.125000 0.000000 0.000000 -0.502466 31.243621 -0.169658 0.000000 0.000000 0.000000 1.189597 17.188028 33.573531 -116.498782 -57.172933 -82.730791 -17.616064 -18.790967 -36.158625 0.000000 0.000000 0.000000 7.125000 0.000000 0.000000 8.514475 -7.131712 9.606062
